name Walk9.mot
datacolumns 19
datarows 30
range 1.59500000 1.74000000
endheader

                time	   L_ground_force_vx	   L_ground_force_vy	   L_ground_force_vz	   L_ground_force_px	   L_ground_force_py	   L_ground_force_pz	   R_ground_force_vx	   R_ground_force_vy	   R_ground_force_vz	   R_ground_force_px	   R_ground_force_py	   R_ground_force_pz	   L_ground_torque_x	   L_ground_torque_y	   L_ground_torque_z	   R_ground_torque_x	   R_ground_torque_y	   R_ground_torque_z	
          1.59500000	         29.70621582	        945.08155636	         72.49128879	         -0.13876378	          0.00000000	         -0.05656940	         -0.00042838	          0.05282278	          0.00476377	          0.00009601	          0.00000000	          0.00001758	          0.00000000	         -1.04171096	          0.00000000	          0.00000000	         -0.00047289	          0.00000000	
          1.60000000	         34.19456891	        952.64925637	         73.26171913	         -0.13826733	          0.00000000	         -0.05666654	         -0.00511786	          0.11077473	          0.00948228	          0.00015422	          0.00000000	          0.00002782	          0.00000000	         -1.10439701	          0.00000000	          0.00000000	         -0.00000312	          0.00000000	
          1.60500000	         38.93544181	        960.41896887	         73.96561644	         -0.13778998	          0.00000000	         -0.05675096	         -0.01179937	          0.18748219	          0.01567081	          0.00022597	          0.00000000	          0.00004034	          0.00000000	         -1.17669126	          0.00000000	          0.00000000	          0.00072981	          0.00000000	
          1.61000000	         43.93487064	        968.37263957	         74.60943941	         -0.13732877	          0.00000000	         -0.05682368	         -0.02076319	          0.28397642	          0.02338842	          0.00030998	          0.00000000	          0.00005490	          0.00000000	         -1.25623498	          0.00000000	          0.00000000	          0.00178271	          0.00000000	
          1.61500000	         49.18837932	        976.48052303	         75.20298726	         -0.13687955	          0.00000000	         -0.05688599	         -0.03218050	          0.39942531	          0.03253866	          0.00040277	          0.00000000	          0.00007083	          0.00000000	         -1.34036472	          0.00000000	          0.00000000	          0.00320473	          0.00000000	
          1.62000000	         54.68076543	        984.69893596	         75.75769016	         -0.13643691	          0.00000000	         -0.05694021	         -0.04601566	          0.53019361	          0.04279443	          0.00049778	          0.00000000	          0.00008693	          0.00000000	         -1.42627826	          0.00000000	          0.00000000	          0.00502697	          0.00000000	
          1.62500000	         60.38585885	        992.97175315	         76.28633453	         -0.13599510	          0.00000000	         -0.05698865	         -0.06191491	          0.66872327	          0.05350931	          0.00058455	          0.00000000	          0.00010133	          0.00000000	         -1.51119299	          0.00000000	          0.00000000	          0.00724856	          0.00000000	
          1.63000000	         66.27006181	       1001.23388625	         76.80148955	         -0.13554819	          0.00000000	         -0.05703311	         -0.07907203	          0.80227127	          0.06361868	          0.00064777	          0.00000000	          0.00011127	          0.00000000	         -1.59236074	          0.00000000	          0.00000000	          0.00981891	          0.00000000	
          1.63500000	         72.29746503	       1009.41934089	         77.31532111	         -0.13509006	          0.00000000	         -0.05707453	         -0.09607469	          0.91158072	          0.07153705	          0.00066646	          0.00000000	          0.00011306	          0.00000000	         -1.66700296	          0.00000000	          0.00000000	          0.01261612	          0.00000000	
          1.64000000	         78.43382570	       1017.46886586	         77.83948760	         -0.13461454	          0.00000000	         -0.05711313	         -0.11073958	          0.96961217	          0.07506228	          0.00061342	          0.00000000	          0.00010190	          0.00000000	         -1.73215214	          0.00000000	          0.00000000	          0.01542212	          0.00000000	
          1.64500000	         84.64940451	       1025.33327642	         78.38477144	         -0.13411649	          0.00000000	         -0.05714917	         -0.11995042	          0.94052483	          0.07130215	          0.00045505	          0.00000000	          0.00007193	          0.00000000	         -1.78540144	          0.00000000	          0.00000000	          0.01789574	          0.00000000	
          1.65000000	         90.92159032	       1032.97277062	         78.96036942	         -0.13359235	          0.00000000	         -0.05718320	         -0.11952036	          0.77917349	          0.05664513	          0.00015197	          0.00000000	          0.00001633	          0.00000000	         -1.82502100	          0.00000000	          0.00000000	          0.01954602	          0.00000000	
          1.65500000	         97.23659668	       1040.35332051	         79.57304461	         -0.13304096	          0.00000000	         -0.05721501	         -0.10410952	          0.43147152	          0.02680334	         -0.00033938	          0.00000000	         -0.00007238	          0.00000000	         -1.84983069	          0.00000000	          0.00000000	          0.01970885	          0.00000000	
          1.66000000	        103.58901083	       1047.44026152	         80.22439475	         -0.13246260	          0.00000000	         -0.05724469	         -0.06723854	         -0.16394043	         -0.02303696	         -0.00106374	          0.00000000	         -0.00020180	          0.00000000	         -1.85915188	          0.00000000	          0.00000000	          0.01753211	          0.00000000	
          1.66500000	        109.97804175	       1054.19211423	         80.91016077	         -0.13185758	          0.00000000	         -0.05727238	         -0.00145028	         -1.07219529	         -0.09791579	         -0.00206209	          0.00000000	         -0.00037872	          0.00000000	         -1.85270976	          0.00000000	          0.00000000	          0.01197555	          0.00000000	
          1.67000000	        116.40335809	       1060.55724194	         81.61936136	         -0.13122562	          0.00000000	         -0.05729690	          0.10131745	         -2.35627770	         -0.20260457	         -0.00336459	          0.00000000	         -0.00060790	          0.00000000	         -1.83107835	          0.00000000	          0.00000000	          0.00183384	          0.00000000	
          1.67500000	        122.85826467	       1066.47362716	         82.33196505	         -0.13056620	          0.00000000	         -0.05731629	          0.24907609	         -4.06805456	         -0.34086729	         -0.00498073	          0.00000000	         -0.00089031	          0.00000000	         -1.79563241	          0.00000000	          0.00000000	         -0.01420710	          0.00000000	
          1.68000000	        129.32411124	       1071.86633857	         83.01652720	         -0.12987845	          0.00000000	         -0.05732851	          0.44876984	         -6.23565929	         -0.51443286	         -0.00688665	          0.00000000	         -0.00122089	          0.00000000	         -1.74878163	          0.00000000	          0.00000000	         -0.03746888	          0.00000000	
          1.68500000	        135.76634681	       1076.64823659	         83.63008036	         -0.12916104	          0.00000000	         -0.05733140	          0.70482229	         -8.84674625	         -0.72164347	         -0.00900937	          0.00000000	         -0.00158582	          0.00000000	         -1.69437670	          0.00000000	          0.00000000	         -0.06912187	          0.00000000	
          1.69000000	        142.13485366	       1080.72165124	         84.11992720	         -0.12841185	          0.00000000	         -0.05732213	          1.01718090	        -11.82737003	         -0.95576459	         -0.01120840	          0.00000000	         -0.00195931	          0.00000000	         -1.63784058	          0.00000000	          0.00000000	         -0.10995623	          0.00000000	
          1.69500000	        148.36649147	       1083.98101990	         84.42763330	         -0.12762814	          0.00000000	         -0.05729662	          1.37881963	        -15.01664745	         -1.20297570	         -0.01325521	          0.00000000	         -0.00230008	          0.00000000	         -1.58571747	          0.00000000	          0.00000000	         -0.16007182	          0.00000000	
          1.70000000	        154.39225600	       1086.31650915	         84.49350080	         -0.12680723	          0.00000000	         -0.05725071	          1.77270453	        -18.13796765	         -1.44011101	         -0.01481222	          0.00000000	         -0.00254781	          0.00000000	         -1.54540951	          0.00000000	          0.00000000	         -0.21847970	          0.00000000	
          1.70500000	        160.14582404	       1087.61664546	         84.26140875	         -0.12594637	          0.00000000	         -0.05718048	          2.16829642	        -20.76837030	         -1.63228888	         -0.01541343	          0.00000000	         -0.00261991	          0.00000000	         -1.52432958	          0.00000000	          0.00000000	         -0.28261507	          0.00000000	
          1.71000000	        165.57352592	       1087.77493472	         83.68394224	         -0.12504290	          0.00000000	         -0.05708255	          2.51776255	        -22.30884359	         -1.73066008	         -0.01445004	          0.00000000	         -0.00240922	          0.00000000	         -1.52871911	          0.00000000	          0.00000000	         -0.34777210	          0.00000000	
          1.71500000	        170.64112776	       1086.69973260	         82.72660097	         -0.12409592	          0.00000000	         -0.05695407	          2.75220211	        -21.95971953	         -1.67061916	         -0.01116565	          0.00000000	         -0.00178355	          0.00000000	         -1.56257120	          0.00000000	          0.00000000	         -0.40648658	          0.00000000	
          1.72000000	        175.33809933	       1084.31958005	         81.37172069	         -0.12310682	          0.00000000	         -0.05679278	          2.77835861	        -18.70705251	         -1.37095832	         -0.00466701	          0.00000000	         -0.00058793	          0.00000000	         -1.62728081	          0.00000000	          0.00000000	         -0.44791355	          0.00000000	
          1.72500000	        179.67737780	       1080.58245316	         79.61937215	         -0.12207893	          0.00000000	         -0.05659829	          2.47649689	        -11.32780467	         -0.73459562	          0.00604243	          0.00000000	          0.00134899	          0.00000000	         -1.72074910	          0.00000000	          0.00000000	         -0.45727360	          0.00000000	
          1.73000000	        183.69188232	       1075.45426154	         77.48692612	         -0.12101725	          0.00000000	         -0.05637168	          1.70035825	          1.57628108	          0.34833174	          0.02199730	          0.00000000	          0.00420303	          0.00000000	         -1.83733914	          0.00000000	          0.00000000	         -0.41547479	          0.00000000	
          1.73500000	        187.42773753	       1068.91577150	         75.00812457	         -0.11992871	          0.00000000	         -0.05611401	          0.28036147	         21.50425087	          1.99406759	          0.04416412	          0.00000000	          0.00813521	          0.00000000	         -1.96841064	          0.00000000	          0.00000000	         -0.29905488	          0.00000000	
          1.74000000	        190.93775700	       1060.95262063	         72.22787494	         -0.11882166	          0.00000000	         -0.05582630	         -1.96852913	         49.92744464	          4.31447017	          0.07328393	          0.00000000	          0.01326366	          0.00000000	         -2.10308275	          0.00000000	          0.00000000	         -0.08063016	          0.00000000	
